<svg xmlns="http://www.w3.org/2000/svg" xmlns:xlink="http://www.w3.org/1999/xlink" viewBox="0 0 762.32 250.27"><defs><style>.cls-1{fill:none;clip-rule:evenodd;}.cls-2,.cls-3{fill:#fff;}.cls-10,.cls-11,.cls-12,.cls-13,.cls-14,.cls-15,.cls-16,.cls-17,.cls-18,.cls-19,.cls-20,.cls-21,.cls-22,.cls-23,.cls-24,.cls-25,.cls-26,.cls-27,.cls-28,.cls-29,.cls-3,.cls-30,.cls-31,.cls-32,.cls-33,.cls-34,.cls-35,.cls-36,.cls-37,.cls-38,.cls-39,.cls-4,.cls-40,.cls-41,.cls-42,.cls-43,.cls-44,.cls-45,.cls-46,.cls-47,.cls-48,.cls-49,.cls-50,.cls-51,.cls-52,.cls-53,.cls-54,.cls-55,.cls-56,.cls-57,.cls-58,.cls-59,.cls-6,.cls-60,.cls-61,.cls-62,.cls-63,.cls-64,.cls-65,.cls-66,.cls-67,.cls-68,.cls-69,.cls-7,.cls-70,.cls-71,.cls-72,.cls-73,.cls-74,.cls-75,.cls-76,.cls-77,.cls-78,.cls-79,.cls-8,.cls-80,.cls-81,.cls-82,.cls-83,.cls-9{fill-rule:evenodd;}.cls-4{fill:#189343;}.cls-5{clip-path:url(#clip-path);}.cls-6{fill:#e4eab1;}.cls-7{fill:#e4eab2;}.cls-8{fill:#e6eab3;}.cls-9{fill:#e6ebb4;}.cls-10{fill:#e6ebb5;}.cls-11{fill:#e7ebb7;}.cls-12{fill:#e6ebb9;}.cls-13{fill:#e7edba;}.cls-14{fill:#e7edbb;}.cls-15{fill:#e8edbc;}.cls-16{fill:#e8edbe;}.cls-17{fill:#e9eebf;}.cls-18{fill:#eaeec1;}.cls-19{fill:#eaeec2;}.cls-20{fill:#eaefc3;}.cls-21{fill:#eaefc4;}.cls-22{fill:#eaefc5;}.cls-23{fill:#ebf0c6;}.cls-24{fill:#ebf0c7;}.cls-25{fill:#ebf0c8;}.cls-26{fill:#edf1ca;}.cls-27{fill:#edf1cb;}.cls-28{fill:#edf1cd;}.cls-29{fill:#edf1ce;}.cls-30{fill:#eef2ce;}.cls-31{fill:#eef3d0;}.cls-32{fill:#eff3d1;}.cls-33{fill:#eff3d2;}.cls-34{fill:#eff4d2;}.cls-35{fill:#f0f4d4;}.cls-36{fill:#f1f4d6;}.cls-37{fill:#f1f4d7;}.cls-38{fill:#f1f4d8;}.cls-39{fill:#f1f5d8;}.cls-40{fill:#f1f5d9;}.cls-41{fill:#f1f5da;}.cls-42{fill:#f1f5dc;}.cls-43{fill:#f2f5dc;}.cls-44{fill:#f3f5dd;}.cls-45{fill:#f2f6dd;}.cls-46{fill:#f2f6de;}.cls-47{fill:#f2f6df;}.cls-48{fill:#f4f6df;}.cls-49{fill:#f4f7e0;}.cls-50{fill:#f3f6e1;}.cls-51{fill:#f4f7e2;}.cls-52{fill:#f5f7e3;}.cls-53{fill:#f5f7e4;}.cls-54{fill:#f5f8e5;}.cls-55{fill:#f5f8e6;}.cls-56{fill:#f7f8e6;}.cls-57{fill:#f7f8e8;}.cls-58{fill:#f6f9e7;}.cls-59{fill:#f7f9e8;}.cls-60{fill:#f7f9ea;}.cls-61{fill:#f8f9eb;}.cls-62{fill:#f8f9ec;}.cls-63{fill:#f8faed;}.cls-64{fill:#f9faee;}.cls-65{fill:#fafaef;}.cls-66{fill:#fafaf1;}.cls-67{fill:#fafbf1;}.cls-68{fill:#fbfcf2;}.cls-69{fill:#fbfcf3;}.cls-70{fill:#fbfcf4;}.cls-71{fill:#fbfbf4;}.cls-72{fill:#fdfcf5;}.cls-73{fill:#fdfcf6;}.cls-74{fill:#fdfdf7;}.cls-75{fill:#fdfdf9;}.cls-76{fill:#fdfdfa;}.cls-77{fill:#fefefa;}.cls-78{fill:#fefefb;}.cls-79{fill:#fefefc;}.cls-80{fill:#fefefd;}.cls-81{fill:#fffffd;}.cls-82{fill:#fffffe;}.cls-83{fill:#d71718;}</style><clipPath id="clip-path"><path class="cls-1" d="M50.94,133.34c23.84-10.49,43.65-18.48,71.15-15.79,25.37,3.26,36.2,3,52-10.94-2.55,16.64-18.14,26.79-49,22.39-43.23-4.62-77.64,12.22-105.56,35L16,179.91c22.48-22.34,50.6-39.43,125.89-39.2,30.27-1.3,58.48-10,70.07-32.91,6.55-15.45,12.25-44.73-20.92-53.26,22.71,11,15.17,32.26-3.06,41.7-19.5,8.62-37.47,7.65-59.27,9C87.31,108,69.7,118,50.94,133.34Z"/></clipPath></defs><title>资源 3</title><g id="图层_2" data-name="图层 2"><g id="logo_write"><g id="ico"><path class="cls-2" d="M146.21,110.69l9.1-61.23H127C121.1,89,118.8,104.6,115.31,128L105.65,193c-2.13,14.23,4.48,21.51,19.87,21.51h107q17.14,0,19.36-14.85l1.19-8.05H138.33c-2.75,0-4-1.42-3.54-4.22Zm182.1,40.73H280l-3.4,22.73h33.45c9.89,0,14.06,5.5,12.42,16.44l-2,13.46q-.89,9.78,8.76,10.2l17.86.28,6-40.39h36.54l3.4-22.73H356.46L364.11,100H398l3.37-22.76H367.48l4.14-27.81H343.47l-4.14,27.81H321.51l6.86-19h-27.1a74.48,74.48,0,0,1-16.33,30.93l-4.71,32.71q15.69-5.57,30-21.83h11c9.81,0,13.92,5.33,12.3,16.07ZM291,50.88H264.93Q253.87,84,236.41,94.42l-4.79,33.39,11.11-4.2-13.52,90.94h9.61q18.71,0,21-15.39l12.7-85.32-17.29-.17Q278.45,92.83,291,50.88ZM476.59,152.5H408l-2.69,18h57.91c7.09,0,10.37,1.9,9.81,5.61l-.34,2.27h-65.2l-2.38,15.9h65.23l-.57,3.69c0,.23-.43.74-1.28,1.59a5.37,5.37,0,0,1-3.88,1.39H343.19l-1.84,13.63H482.74c5.16,0,9.3-1.5,12.39-4.56a15.7,15.7,0,0,0,4.85-8.93l1-6.8h59.81l2.44-16.44,1.08-7.34H582l2.66-18H567l.88-6c1.73-11.57-3.57-17.32-16.5-17.32H510.66l1.16-7.68h62.25L576.91,100c1.59-12.08-3.15-18-14.83-18H517.69l1.16-7.85h65.2l2.69-18h-65.2l1-6.66H491.9l-1,6.66H423.07l-2.66,18h57.54c6.86,0,10,1.84,9.47,5.58L487.08,82h-47q-17.35,0-20,18.2l-2.07,14-1.08,7.34h54.37c6.66,0,9.69,1.81,9.16,5.41L480,129.2h-65.2l-2.38,15.9H467c7.09,0,10.37,1.84,9.84,5.44Zm53.55-7.4c6.55,0,9.52,1.84,9,5.44l-.28,2H507.2l1.11-7.4Zm-3.77,25.37c6.55,0,9.52,1.9,9,5.61l-.34,2.27H503.35l1.19-7.88Zm-43-63.64h-36.2l1.53-10.15h26.59q9.61,0,8.36,8.42Zm32.14-10.15h22.71c7.34,0,10.66,2.55,9.89,7.68l-.37,2.47H514Z"/><path class="cls-2" d="M588.9,173.85h68.17c4.56,0,7.14-2,7.68-6l.62-4.37h-29l2.52-17.77h27l1.47-10.35h-27l2.21-15.7h28.37l1.45-10.35H644l1.5-10.69H631.84l-1.5,10.69H615.91l4.31-9.16H607A35.12,35.12,0,0,1,596.89,116l-2.35,16.55a49.07,49.07,0,0,0,15.62-12.9h9.47c6.15,0,8.93,2.32,8.28,6.94l-1.25,8.76H597.12l-1.47,10.35h20.95c5.73,0,8.22,2.75,7.43,8.28l-1.33,9.5H590.34Zm165.77-26.14q1.28-10-8.14-10h-6.6l1.16-8.28h18.79l1.59-11.14H742.68l1.22-8.76h10.6c4.25,0,6.66-2,7.23-6l.6-4.37H714.7l-1.53,10.35h10.35c4.42,0,6.35,1.84,5.81,5.56l-.43,3.2h-19l-1.56,11.14h12.16c4.54,0,6.52,1.81,6,5.41l-.4,2.86h-6.6c-7,0-10.94,3.46-12,10.35l-2.21,15.79-.74,5.07-.68,5h47Zm-33,.65h14.57c3.23,0,4.62,1.7,4.14,5.1L739,163H719.63Zm-31,23.87h-12l7.94-18.94q8-19.35-2-22.31l2-13.38q24.32,5.91,11.54,37.45Z"/><path class="cls-2" d="M604.8,182.3l-1,6.6-8.67,23.58h-7.48L597,187.74h-7.46l.91-5.44Zm17.12,18.26h-9.75l-.88,5.36a5.72,5.72,0,0,0-.09,2.15c.11.34.4.48.85.48a1.34,1.34,0,0,0,1.25-.62,8.79,8.79,0,0,0,.71-2.49l.51-3.26h7.14l-.28,1.81a17.27,17.27,0,0,1-.88,3.54,8.24,8.24,0,0,1-1.79,2.61,8,8,0,0,1-3,2.1,10.92,10.92,0,0,1-4.2.71,11.25,11.25,0,0,1-4.11-.68,5.37,5.37,0,0,1-2.52-1.9,5.55,5.55,0,0,1-1-2.64,17.66,17.66,0,0,1,.31-4.22l1.16-7.2a14.48,14.48,0,0,1,1.7-5.13,7.54,7.54,0,0,1,3.34-2.86,11,11,0,0,1,4.76-1,9.26,9.26,0,0,1,5,1.19,5.26,5.26,0,0,1,2.38,3.2,14.12,14.12,0,0,1-.09,5.56Zm-6.89-4,.28-1.81a7.94,7.94,0,0,0,.2-2.47.65.65,0,0,0-.74-.57,1.11,1.11,0,0,0-1,.48,11,11,0,0,0-.6,2.55l-.31,1.81Zm26.87-.88h-6.66l.23-1.33a7.32,7.32,0,0,0,.14-2.18c-.09-.31-.37-.45-.91-.45a1.31,1.31,0,0,0-1,.43,2.41,2.41,0,0,0-.51,1.25,5.36,5.36,0,0,0-.11,1.67,2.16,2.16,0,0,0,.77,1.16,15.7,15.7,0,0,0,2.95,1.84,9.68,9.68,0,0,1,3.83,3,6.62,6.62,0,0,1,.34,4.11,11.12,11.12,0,0,1-1.53,4.56,6.72,6.72,0,0,1-3,2.38,11.92,11.92,0,0,1-4.56.82,11.71,11.71,0,0,1-4.76-.88,4.3,4.3,0,0,1-2.41-2.44,10.29,10.29,0,0,1,0-4.62l.17-1.19h6.69l-.26,1.56a7.46,7.46,0,0,0-.17,2.58c.11.43.4.6.91.6a1.49,1.49,0,0,0,1.16-.4,3.32,3.32,0,0,0,.6-1.67c.2-1.19.2-1.93,0-2.24a32.17,32.17,0,0,0-4-2.64c-2-1.25-3.17-2.35-3.49-3.37a8,8,0,0,1-.14-3.63,10.38,10.38,0,0,1,1.5-4.37,6.26,6.26,0,0,1,3-2.15,12.48,12.48,0,0,1,4.48-.77,11.24,11.24,0,0,1,4.08.62,5.1,5.1,0,0,1,2.38,1.64,3.48,3.48,0,0,1,.79,1.9,12.26,12.26,0,0,1-.23,2.75Zm21-7.91-5.07,17.91q-1.19,4.25-1.79,5.78a7.49,7.49,0,0,1-1.56,2.55,5.74,5.74,0,0,1-2.47,1.5,16.89,16.89,0,0,1-4.65.48h-4.56l.65-4a9.21,9.21,0,0,0,2.27-.17,1,1,0,0,0,.65-.79c0-.2,0-1.08-.06-2.61l-.77-20.69h6.86l-.26,16.7,3.91-16.7Zm1.16,18.31-1,6.43h6.43l1-6.43Zm33.39-10.57h-7.85l.85-5.27a10.07,10.07,0,0,0,.23-2.86c-.11-.37-.45-.57-1-.57a1.43,1.43,0,0,0-1.36.68,13.51,13.51,0,0,0-.74,3l-2.27,14a10.08,10.08,0,0,0-.23,2.89c.11.45.48.65,1.08.65a1.28,1.28,0,0,0,1.25-.65,11.25,11.25,0,0,0,.79-3.17l.62-3.77h7.85l-.2,1.16a25.57,25.57,0,0,1-1.76,6.66,8.63,8.63,0,0,1-3.49,3.43,11.34,11.34,0,0,1-5.81,1.47,10.15,10.15,0,0,1-5.47-1.28,4.79,4.79,0,0,1-2.41-3.43,21.9,21.9,0,0,1,.34-6.66l1.45-8.82a42.56,42.56,0,0,1,1-4.9,8.63,8.63,0,0,1,1.84-3.15,9.89,9.89,0,0,1,3.46-2.38,12.48,12.48,0,0,1,4.68-.85,10.05,10.05,0,0,1,5.5,1.33,5.15,5.15,0,0,1,2.41,3.34,19.09,19.09,0,0,1-.31,6.24Zm20.83,1-1,6.07a27.31,27.31,0,0,1-1.13,4.88,8.18,8.18,0,0,1-1.93,2.92,7.94,7.94,0,0,1-3.15,2,11.59,11.59,0,0,1-4.05.65,13.09,13.09,0,0,1-4.14-.54,4.76,4.76,0,0,1-2.44-1.67,5.76,5.76,0,0,1-.94-2.69,21.14,21.14,0,0,1,.37-4.71l1-6.35a17.86,17.86,0,0,1,1.64-5.39,7.66,7.66,0,0,1,3.17-3.12,12.22,12.22,0,0,1,9.38-.43,5.6,5.6,0,0,1,2.49,2,6.11,6.11,0,0,1,.94,2.49,14.78,14.78,0,0,1-.26,3.91ZM711,194.57a7.51,7.51,0,0,0,.2-2.38c-.09-.34-.34-.51-.79-.51a1,1,0,0,0-1,.51,6.91,6.91,0,0,0-.62,2.38L707,205.74a6.31,6.31,0,0,0-.14,2.3.68.68,0,0,0,.77.51,1,1,0,0,0,1-.48,6.54,6.54,0,0,0,.57-2.07ZM731,187.74l-.51,2.35a7.88,7.88,0,0,1,2.41-2.1,6.21,6.21,0,0,1,2.89-.68,4.35,4.35,0,0,1,4.28,2.78,8.86,8.86,0,0,1,2.49-2.1,5.89,5.89,0,0,1,2.75-.68,4.66,4.66,0,0,1,3,.91,3.35,3.35,0,0,1,1.25,2.3,18.9,18.9,0,0,1-.37,4.39l-2.86,17.57H739l2.64-16.13a21,21,0,0,0,.43-3.91.78.78,0,0,0-.88-.77,1.22,1.22,0,0,0-1.16.77,20.36,20.36,0,0,0-.85,3.91l-2.64,16.13h-7.31l2.55-15.7a27.12,27.12,0,0,0,.54-4.37c0-.48-.31-.74-.85-.74a1.39,1.39,0,0,0-.94.4,1.94,1.94,0,0,0-.54.94c-.09.37-.23,1.13-.43,2.32l-2.78,17.15h-7.31l4-24.75Z"/><path class="cls-3" d="M0,192c41.58-27.16,81.13-24.69,117.84-23.9,19.53-.31,56.41-6.24,76.93-36.48,12.5-19.64,32.66-83.74-21.43-92.13C202.93,85,147.6,91.5,118.26,91,46.18,91.62,4,148.85,0,192Z"/><path class="cls-4" d="M17.21,179.21C58.79,157,98.33,159.05,135,159.68c19.53-.26,56.41-5.1,77-29.82,12.5-16.07,32.66-68.46-21.43-75.34C220.17,91.64,164.81,97,135.47,96.6c-72.09.51-114.29,47.28-118.26,82.6Z"/><g class="cls-5"><polyline class="cls-6" points="239.7 73.84 220.34 101.82 113.67 27.98 133.06 0"/><polyline class="cls-7" points="220.48 101.59 220.03 102.27 113.36 28.43 113.84 27.75"/><polyline class="cls-8" points="220.17 102.05 219.71 102.73 113.05 28.89 113.53 28.2"/><polyline class="cls-9" points="219.85 102.5 219.4 103.18 112.73 29.34 113.22 28.66"/><polyline class="cls-10" points="219.54 102.95 219.09 103.64 112.42 29.79 112.9 29.11"/><polyline class="cls-11" points="219.23 103.41 218.78 104.09 112.11 30.25 112.59 29.57"/><polyline class="cls-12" points="218.92 103.86 218.47 104.51 111.8 30.7 112.28 30.02"/><polyline class="cls-13" points="218.61 104.29 218.15 104.97 111.49 31.12 111.97 30.47"/><polyline class="cls-14" points="218.3 104.74 217.84 105.42 111.17 31.58 111.66 30.93"/><polyline class="cls-15" points="217.98 105.19 217.53 105.87 110.86 32.03 111.34 31.35"/><polyline class="cls-16" points="217.67 105.65 217.22 106.33 110.55 32.48 111.03 31.8"/><polyline class="cls-16" points="217.36 106.1 216.91 106.78 110.24 32.94 110.72 32.26"/><polyline class="cls-17" points="217.05 106.55 216.59 107.23 109.93 33.39 110.41 32.71"/><polyline class="cls-18" points="216.74 107.01 216.28 107.66 109.62 33.85 110.1 33.16"/><polyline class="cls-19" points="216.43 107.43 215.97 108.11 109.3 34.3 109.79 33.62"/><polyline class="cls-20" points="216.11 107.89 215.66 108.57 108.99 34.72 109.47 34.07"/><polyline class="cls-21" points="215.8 108.34 215.35 109.02 108.68 35.18 109.16 34.5"/><polyline class="cls-22" points="215.49 108.79 215.04 109.47 108.37 35.63 108.85 34.95"/><polyline class="cls-23" points="215.18 109.25 214.72 109.93 108.06 36.09 108.54 35.41"/><polyline class="cls-24" points="214.87 109.7 214.41 110.38 107.75 36.54 108.23 35.86"/><polyline class="cls-25" points="214.55 110.15 214.1 110.81 107.46 36.99 107.92 36.31"/><polyline class="cls-26" points="214.24 110.61 213.79 111.26 107.15 37.45 107.6 36.77"/><polyline class="cls-27" points="213.93 111.03 213.48 111.71 106.84 37.87 107.29 37.22"/><polyline class="cls-28" points="213.62 111.49 213.16 112.17 106.53 38.32 106.98 37.64"/><polyline class="cls-29" points="213.34 111.94 212.85 112.62 106.21 38.78 106.67 38.1"/><polyline class="cls-30" points="213.02 112.39 212.54 113.07 105.9 39.23 106.36 38.55"/><polyline class="cls-31" points="212.71 112.85 212.23 113.53 105.59 39.69 106.04 39.01"/><polyline class="cls-32" points="212.4 113.3 211.92 113.95 105.28 40.14 105.73 39.46"/><polyline class="cls-33" points="212.09 113.75 211.61 114.41 104.97 40.59 105.42 39.91"/><polyline class="cls-34" points="211.78 114.18 211.29 114.86 104.66 41.02 105.11 40.37"/><polyline class="cls-35" points="211.47 114.63 210.98 115.31 104.34 41.47 104.8 40.82"/><polyline class="cls-36" points="211.15 115.09 210.67 115.77 104.03 41.92 104.48 41.24"/><polyline class="cls-37" points="210.84 115.54 210.36 116.22 103.72 42.38 104.17 41.7"/><polyline class="cls-38" points="210.53 115.99 210.05 116.67 103.41 42.83 103.86 42.15"/><polyline class="cls-39" points="210.22 116.45 209.74 117.13 103.1 43.28 103.55 42.6"/><polyline class="cls-39" points="209.91 116.9 209.42 117.55 102.78 43.74 103.24 43.06"/><polyline class="cls-39" points="209.59 117.33 209.11 118.01 102.47 44.19 102.93 43.51"/><polyline class="cls-40" points="209.28 117.78 208.8 118.46 102.16 44.62 102.61 43.97"/><polyline class="cls-40" points="208.97 118.23 208.49 118.91 101.85 45.07 102.3 44.39"/><polyline class="cls-40" points="208.66 118.69 208.18 119.37 101.54 45.52 101.99 44.84"/><polyline class="cls-40" points="208.35 119.14 207.87 119.82 101.22 45.98 101.68 45.3"/><polyline class="cls-40" points="208.03 119.59 207.55 120.27 100.91 46.43 101.37 45.75"/><polyline class="cls-40" points="207.72 120.05 207.24 120.7 100.6 46.88 101.06 46.2"/><polyline class="cls-41" points="207.41 120.5 206.93 121.15 100.29 47.34 100.74 46.66"/><polyline class="cls-41" points="207.1 120.93 206.62 121.61 99.98 47.76 100.43 47.11"/><polyline class="cls-41" points="206.79 121.38 206.31 122.06 99.67 48.22 100.12 47.54"/><polyline class="cls-41" points="206.48 121.83 205.99 122.51 99.35 48.67 99.81 47.99"/><polyline class="cls-41" points="206.16 122.29 205.68 122.97 99.04 49.12 99.5 48.44"/><polyline class="cls-41" points="205.85 122.74 205.37 123.42 98.73 49.58 99.18 48.9"/><polyline class="cls-42" points="205.54 123.19 205.06 123.85 98.42 50.03 98.87 49.35"/><polyline class="cls-42" points="205.23 123.65 204.75 124.3 98.11 50.48 98.59 49.8"/><polyline class="cls-42" points="204.92 124.07 204.46 124.75 97.8 50.91 98.28 50.26"/><polyline class="cls-42" points="204.6 124.53 204.15 125.21 97.48 51.36 97.97 50.71"/><polyline class="cls-42" points="204.29 124.98 203.84 125.66 97.17 51.82 97.65 51.14"/><polyline class="cls-42" points="203.98 125.43 203.53 126.11 96.86 52.27 97.34 51.59"/><polyline class="cls-43" points="203.67 125.89 203.22 126.57 96.55 52.72 97.03 52.04"/><polyline class="cls-43" points="203.36 126.34 202.9 127.02 96.24 53.18 96.72 52.5"/><polyline class="cls-43" points="203.05 126.79 202.59 127.45 95.92 53.63 96.41 52.95"/><polyline class="cls-43" points="202.73 127.22 202.28 127.9 95.61 54.09 96.09 53.41"/><polyline class="cls-43" points="202.42 127.67 201.97 128.35 95.3 54.51 95.78 53.86"/><polyline class="cls-43" points="202.11 128.13 201.66 128.81 94.99 54.96 95.47 54.28"/><polyline class="cls-44" points="201.8 128.58 201.34 129.26 94.68 55.42 95.16 54.74"/><polyline class="cls-44" points="201.49 129.03 201.03 129.71 94.36 55.87 94.85 55.19"/><polyline class="cls-45" points="201.18 129.49 200.72 130.17 94.05 56.32 94.53 55.64"/><polyline class="cls-45" points="200.86 129.94 200.41 130.59 93.74 56.78 94.22 56.1"/><polyline class="cls-45" points="200.55 130.39 200.1 131.05 93.43 57.23 93.91 56.55"/><polyline class="cls-45" points="200.24 130.82 199.79 131.5 93.12 57.66 93.6 57.01"/><polyline class="cls-46" points="199.93 131.27 199.47 131.95 92.81 58.11 93.29 57.43"/><polyline class="cls-46" points="199.62 131.73 199.16 132.41 92.49 58.56 92.98 57.88"/><polyline class="cls-46" points="199.3 132.18 198.85 132.86 92.18 59.02 92.67 58.34"/><polyline class="cls-46" points="198.99 132.63 198.54 133.31 91.87 59.47 92.35 58.79"/><polyline class="cls-46" points="198.68 133.09 198.23 133.74 91.56 59.92 92.04 59.24"/><polyline class="cls-46" points="198.37 133.54 197.91 134.19 91.25 60.38 91.73 59.7"/><polyline class="cls-47" points="198.06 133.97 197.6 134.65 90.94 60.8 91.42 60.15"/><polyline class="cls-47" points="197.75 134.42 197.29 135.1 90.62 61.26 91.11 60.6"/><polyline class="cls-47" points="197.43 134.87 196.98 135.55 90.31 61.71 90.79 61.03"/><polyline class="cls-48" points="197.12 135.33 196.67 136.01 90.03 62.16 90.48 61.48"/><polyline class="cls-48" points="196.81 135.78 196.36 136.46 89.72 62.62 90.17 61.94"/><polyline class="cls-48" points="196.5 136.23 196.04 136.91 89.41 63.07 89.86 62.39"/><polyline class="cls-49" points="196.19 136.69 195.73 137.34 89.09 63.52 89.55 62.84"/><polyline class="cls-49" points="195.87 137.11 195.42 137.79 88.78 63.95 89.23 63.3"/><polyline class="cls-49" points="195.59 137.56 195.11 138.25 88.47 64.4 88.92 63.75"/><polyline class="cls-49" points="195.28 138.02 194.8 138.7 88.16 64.86 88.61 64.18"/><polyline class="cls-49" points="194.97 138.47 194.49 139.15 87.85 65.31 88.3 64.63"/><polyline class="cls-49" points="194.66 138.93 194.17 139.61 87.53 65.76 87.99 65.08"/><polyline class="cls-50" points="194.34 139.38 193.86 140.06 87.22 66.22 87.68 65.54"/><polyline class="cls-50" points="194.03 139.83 193.55 140.49 86.91 66.67 87.36 65.99"/><polyline class="cls-50" points="193.72 140.29 193.24 140.94 86.6 67.12 87.05 66.44"/><polyline class="cls-50" points="193.41 140.71 192.93 141.39 86.29 67.55 86.74 66.9"/><polyline class="cls-50" points="193.1 141.16 192.61 141.85 85.97 68 86.43 67.32"/><polyline class="cls-50" points="192.78 141.62 192.3 142.3 85.66 68.46 86.12 67.78"/><polyline class="cls-50" points="192.47 142.07 191.99 142.75 85.35 68.91 85.81 68.23"/><polyline class="cls-50" points="192.16 142.53 191.68 143.21 85.04 69.36 85.49 68.68"/><polyline class="cls-51" points="191.85 142.98 191.37 143.63 84.73 69.82 85.18 69.14"/><polyline class="cls-51" points="191.54 143.43 191.06 144.09 84.42 70.27 84.87 69.59"/><polyline class="cls-51" points="191.22 143.86 190.74 144.54 84.1 70.7 84.56 70.04"/><polyline class="cls-51" points="190.91 144.31 190.43 144.99 83.79 71.15 84.25 70.5"/><polyline class="cls-52" points="190.6 144.76 190.12 145.45 83.48 71.6 83.93 70.92"/><polyline class="cls-52" points="190.29 145.22 189.81 145.9 83.17 72.06 83.62 71.38"/><polyline class="cls-52" points="189.98 145.67 189.5 146.35 82.86 72.51 83.31 71.83"/><polyline class="cls-52" points="189.67 146.13 189.18 146.81 82.55 72.96 83 72.28"/><polyline class="cls-52" points="189.35 146.58 188.87 147.23 82.23 73.42 82.69 72.74"/><polyline class="cls-52" points="189.04 147 188.56 147.69 81.92 73.84 82.38 73.19"/><polyline class="cls-53" points="188.73 147.46 188.25 148.14 81.61 74.3 82.06 73.64"/><polyline class="cls-53" points="188.42 147.91 187.94 148.59 81.3 74.75 81.75 74.07"/><polyline class="cls-53" points="188.11 148.37 187.63 149.05 80.99 75.2 81.44 74.52"/><polyline class="cls-53" points="187.79 148.82 187.31 149.5 80.67 75.66 81.16 74.98"/><polyline class="cls-53" points="187.48 149.27 187.03 149.95 80.36 76.11 80.84 75.43"/><polyline class="cls-53" points="187.17 149.73 186.72 150.38 80.05 76.56 80.53 75.88"/><polyline class="cls-54" points="186.86 150.15 186.41 150.83 79.74 77.02 80.22 76.34"/><polyline class="cls-54" points="186.55 150.6 186.09 151.28 79.43 77.44 79.91 76.79"/><polyline class="cls-54" points="186.24 151.06 185.78 151.74 79.11 77.9 79.6 77.22"/><polyline class="cls-54" points="185.92 151.51 185.47 152.19 78.8 78.35 79.28 77.67"/><polyline class="cls-54" points="185.61 151.97 185.16 152.65 78.49 78.8 78.97 78.12"/><polyline class="cls-54" points="185.3 152.42 184.85 153.1 78.18 79.26 78.66 78.58"/><polyline class="cls-55" points="184.99 152.87 184.53 153.52 77.87 79.71 78.35 79.03"/><polyline class="cls-55" points="184.68 153.33 184.22 153.98 77.56 80.16 78.04 79.48"/><polyline class="cls-55" points="184.37 153.75 183.91 154.43 77.24 80.59 77.73 79.94"/><polyline class="cls-56" points="184.05 154.21 183.6 154.88 76.93 81.04 77.41 80.39"/><polyline class="cls-56" points="183.74 154.66 183.29 155.34 76.62 81.5 77.1 80.82"/><polyline class="cls-56" points="183.43 155.11 182.98 155.79 76.31 81.95 76.79 81.27"/><polyline class="cls-57" points="183.12 155.56 182.66 156.25 76 82.4 76.48 81.72"/><polyline class="cls-58" points="182.81 156.02 182.35 156.7 75.69 82.86 76.17 82.18"/><polyline class="cls-58" points="182.5 156.47 182.04 157.12 75.37 83.31 75.86 82.63"/><polyline class="cls-58" points="182.18 156.9 181.73 157.58 75.06 83.73 75.54 83.08"/><polyline class="cls-58" points="181.87 157.35 181.42 158.03 74.75 84.19 75.23 83.54"/><polyline class="cls-58" points="181.56 157.81 181.11 158.49 74.44 84.64 74.92 83.96"/><polyline class="cls-59" points="181.25 158.26 180.79 158.94 74.13 85.1 74.61 84.42"/><polyline class="cls-59" points="180.94 158.71 180.48 159.39 73.81 85.55 74.3 84.87"/><polyline class="cls-59" points="180.62 159.16 180.17 159.85 73.5 86 73.98 85.32"/><polyline class="cls-59" points="180.31 159.62 179.86 160.27 73.19 86.46 73.67 85.78"/><polyline class="cls-59" points="180 160.04 179.55 160.72 72.88 86.91 73.36 86.23"/><polyline class="cls-59" points="179.69 160.5 179.24 161.18 72.57 87.33 73.05 86.68"/><polyline class="cls-60" points="179.38 160.95 178.92 161.63 72.28 87.79 72.74 87.11"/><polyline class="cls-60" points="179.06 161.41 178.61 162.09 71.97 88.24 72.42 87.56"/><polyline class="cls-60" points="178.75 161.86 178.3 162.54 71.66 88.7 72.11 88.02"/><polyline class="cls-60" points="178.44 162.31 177.99 162.99 71.35 89.15 71.8 88.47"/><polyline class="cls-60" points="178.16 162.76 177.68 163.42 71.04 89.6 71.49 88.92"/><polyline class="cls-60" points="177.85 163.22 177.36 163.87 70.72 90.06 71.18 89.38"/><polyline class="cls-61" points="177.53 163.64 177.05 164.32 70.41 90.48 70.87 89.83"/><polyline class="cls-61" points="177.22 164.1 176.74 164.78 70.1 90.94 70.55 90.25"/><polyline class="cls-61" points="176.91 164.55 176.43 165.23 69.79 91.39 70.24 90.71"/><polyline class="cls-61" points="176.6 165 176.12 165.69 69.48 91.84 69.93 91.16"/><polyline class="cls-61" points="176.29 165.46 175.81 166.14 69.17 92.3 69.62 91.62"/><polyline class="cls-61" points="175.97 165.91 175.49 166.59 68.85 92.75 69.31 92.07"/><polyline class="cls-61" points="175.66 166.37 175.18 167.02 68.54 93.2 69 92.52"/><polyline class="cls-61" points="175.35 166.79 174.87 167.47 68.23 93.63 68.68 92.98"/><polyline class="cls-61" points="175.04 167.24 174.56 167.92 67.92 94.08 68.37 93.43"/><polyline class="cls-61" points="174.73 167.7 174.25 168.38 67.61 94.53 68.06 93.86"/><polyline class="cls-61" points="174.42 168.15 173.93 168.83 67.29 94.99 67.75 94.31"/><polyline class="cls-61" points="174.1 168.6 173.62 169.28 66.98 95.44 67.44 94.76"/><polyline class="cls-62" points="173.79 169.06 173.31 169.74 66.67 95.9 67.12 95.22"/><polyline class="cls-63" points="173.48 169.51 173 170.16 66.36 96.35 66.81 95.67"/><polyline class="cls-63" points="173.17 169.94 172.69 170.62 66.05 96.8 66.5 96.12"/><polyline class="cls-63" points="172.86 170.39 172.38 171.07 65.73 97.23 66.19 96.58"/><polyline class="cls-63" points="172.54 170.84 172.06 171.52 65.42 97.68 65.88 97"/><polyline class="cls-63" points="172.23 171.3 171.75 171.98 65.11 98.14 65.56 97.45"/><polyline class="cls-63" points="171.92 171.75 171.44 172.43 64.8 98.59 65.25 97.91"/><polyline class="cls-63" points="171.61 172.21 171.13 172.88 64.49 99.04 64.94 98.36"/><polyline class="cls-63" points="171.3 172.66 170.82 173.31 64.18 99.5 64.63 98.82"/><polyline class="cls-64" points="170.99 173.11 170.5 173.76 63.87 99.95 64.32 99.27"/><polyline class="cls-64" points="170.67 173.54 170.19 174.22 63.55 100.38 64.01 99.72"/><polyline class="cls-64" points="170.36 173.99 169.88 174.67 63.24 100.83 63.72 100.15"/><polyline class="cls-65" points="170.05 174.44 169.57 175.12 62.93 101.28 63.41 100.6"/><polyline class="cls-65" points="169.74 174.9 169.28 175.58 62.62 101.73 63.1 101.06"/><polyline class="cls-65" points="169.43 175.35 168.97 176.03 62.31 102.19 62.79 101.51"/><polyline class="cls-65" points="169.12 175.81 168.66 176.46 61.99 102.64 62.48 101.96"/><polyline class="cls-65" points="168.8 176.26 168.35 176.91 61.68 103.1 62.16 102.42"/><polyline class="cls-65" points="168.49 176.68 168.04 177.36 61.37 103.52 61.85 102.87"/><polyline class="cls-65" points="168.18 177.14 167.73 177.82 61.06 103.97 61.54 103.32"/><polyline class="cls-65" points="167.87 177.59 167.41 178.27 60.75 104.43 61.23 103.75"/><polyline class="cls-65" points="167.56 178.04 167.1 178.72 60.44 104.88 60.92 104.2"/><polyline class="cls-65" points="167.24 178.5 166.79 179.18 60.12 105.33 60.6 104.66"/><polyline class="cls-65" points="166.93 178.95 166.48 179.63 59.81 105.79 60.29 105.11"/><polyline class="cls-65" points="166.62 179.41 166.17 180.06 59.5 106.24 59.98 105.56"/><polyline class="cls-66" points="166.31 179.83 165.85 180.51 59.19 106.7 59.67 106.02"/><polyline class="cls-66" points="166 180.28 165.54 180.96 58.88 107.12 59.36 106.47"/><polyline class="cls-66" points="165.69 180.74 165.23 181.42 58.56 107.58 59.05 106.89"/><polyline class="cls-66" points="165.37 181.19 164.92 181.87 58.25 108.03 58.73 107.35"/><polyline class="cls-66" points="165.06 181.64 164.61 182.32 57.94 108.48 58.42 107.8"/><polyline class="cls-66" points="164.75 182.1 164.3 182.78 57.63 108.94 58.11 108.25"/><polyline class="cls-67" points="164.44 182.55 163.98 183.2 57.32 109.39 57.8 108.71"/><polyline class="cls-68" points="164.13 183 163.67 183.66 57.01 109.84 57.49 109.16"/><polyline class="cls-68" points="163.81 183.43 163.36 184.11 56.69 110.27 57.17 109.62"/><polyline class="cls-68" points="163.5 183.88 163.05 184.56 56.38 110.72 56.86 110.04"/><polyline class="cls-68" points="163.19 184.34 162.74 185.02 56.07 111.17 56.55 110.5"/><polyline class="cls-68" points="162.88 184.79 162.43 185.47 55.76 111.63 56.24 110.95"/><polyline class="cls-69" points="162.57 185.24 162.11 185.92 55.45 112.08 55.93 111.4"/><polyline class="cls-69" points="162.25 185.7 161.8 186.35 55.13 112.53 55.62 111.86"/><polyline class="cls-69" points="161.94 186.15 161.49 186.8 54.85 112.99 55.3 112.31"/><polyline class="cls-69" points="161.63 186.58 161.18 187.26 54.54 113.41 54.99 112.76"/><polyline class="cls-69" points="161.32 187.03 160.87 187.71 54.23 113.87 54.68 113.22"/><polyline class="cls-69" points="161.01 187.48 160.55 188.16 53.91 114.32 54.37 113.64"/><polyline class="cls-70" points="160.7 187.94 160.24 188.62 53.6 114.78 54.06 114.09"/><polyline class="cls-70" points="160.41 188.39 159.93 189.07 53.29 115.23 53.74 114.55"/><polyline class="cls-70" points="160.1 188.84 159.62 189.52 52.98 115.68 53.43 115"/><polyline class="cls-70" points="159.79 189.3 159.31 189.95 52.67 116.14 53.12 115.45"/><polyline class="cls-70" points="159.48 189.72 159 190.4 52.36 116.59 52.81 115.91"/><polyline class="cls-70" points="159.16 190.18 158.68 190.86 52.04 117.01 52.5 116.36"/><polyline class="cls-71" points="158.85 190.63 158.37 191.31 51.73 117.47 52.19 116.79"/><polyline class="cls-71" points="158.54 191.08 158.06 191.76 51.42 117.92 51.87 117.24"/><polyline class="cls-71" points="158.23 191.54 157.75 192.22 51.11 118.38 51.56 117.69"/><polyline class="cls-71" points="157.92 191.99 157.44 192.67 50.8 118.83 51.25 118.15"/><polyline class="cls-72" points="157.61 192.44 157.12 193.1 50.48 119.28 50.94 118.6"/><polyline class="cls-72" points="157.29 192.9 156.81 193.55 50.17 119.73 50.63 119.06"/><polyline class="cls-73" points="156.98 193.32 156.5 194 49.86 120.16 50.31 119.51"/><polyline class="cls-73" points="156.67 193.78 156.19 194.46 49.55 120.61 50 119.93"/><polyline class="cls-73" points="156.36 194.23 155.88 194.91 49.24 121.07 49.69 120.39"/><polyline class="cls-73" points="156.05 194.68 155.56 195.36 48.93 121.52 49.38 120.84"/><polyline class="cls-73" points="155.74 195.14 155.25 195.82 48.61 121.97 49.07 121.3"/><polyline class="cls-73" points="155.42 195.59 154.94 196.24 48.3 122.43 48.76 121.75"/><polyline class="cls-74" points="155.11 196.04 154.63 196.7 47.99 122.88 48.44 122.2"/><polyline class="cls-74" points="154.8 196.47 154.32 197.15 47.68 123.31 48.13 122.66"/><polyline class="cls-74" points="154.49 196.92 154.01 197.6 47.37 123.76 47.82 123.11"/><polyline class="cls-74" points="154.18 197.38 153.69 198.06 47.05 124.21 47.51 123.53"/><polyline class="cls-74" points="153.87 197.83 153.38 198.51 46.74 124.67 47.2 123.99"/><polyline class="cls-74" points="153.55 198.28 153.07 198.96 46.43 125.12 46.88 124.44"/><polyline class="cls-75" points="153.24 198.74 152.76 199.42 46.12 125.58 46.57 124.89"/><polyline class="cls-75" points="152.93 199.19 152.45 199.84 45.81 126.03 46.26 125.35"/><polyline class="cls-75" points="152.62 199.62 152.13 200.3 45.5 126.45 45.98 125.8"/><polyline class="cls-75" points="152.31 200.07 151.85 200.75 45.18 126.91 45.67 126.25"/><polyline class="cls-75" points="151.99 200.52 151.54 201.2 44.87 127.36 45.35 126.68"/><polyline class="cls-75" points="151.68 200.98 151.23 201.66 44.56 127.81 45.04 127.13"/><polyline class="cls-76" points="151.37 201.43 150.92 202.11 44.25 128.27 44.73 127.59"/><polyline class="cls-77" points="151.06 201.88 150.6 202.56 43.94 128.72 44.42 128.04"/><polyline class="cls-77" points="150.75 202.34 150.29 202.99 43.63 129.18 44.11 128.5"/><polyline class="cls-77" points="150.44 202.79 149.98 203.44 43.31 129.63 43.8 128.95"/><polyline class="cls-77" points="150.12 203.22 149.67 203.9 43 130.05 43.48 129.4"/><polyline class="cls-77" points="149.81 203.67 149.36 204.35 42.69 130.51 43.17 129.83"/><polyline class="cls-78" points="149.5 204.12 149.05 204.8 42.38 130.96 42.86 130.28"/><polyline class="cls-78" points="149.19 204.58 148.73 205.26 42.07 131.41 42.55 130.73"/><polyline class="cls-78" points="148.88 205.03 148.42 205.71 41.75 131.87 42.24 131.19"/><polyline class="cls-78" points="148.56 205.48 148.11 206.13 41.44 132.32 41.92 131.64"/><polyline class="cls-78" points="148.25 205.94 147.8 206.59 41.13 132.78 41.61 132.09"/><polyline class="cls-78" points="147.94 206.36 147.49 207.04 40.82 133.2 41.3 132.55"/><polyline class="cls-79" points="147.63 206.82 147.18 207.5 40.51 133.65 40.99 133"/><polyline class="cls-79" points="147.32 207.27 146.86 207.95 40.2 134.11 40.68 133.43"/><polyline class="cls-79" points="147 207.72 146.55 208.4 39.88 134.56 40.37 133.88"/><polyline class="cls-79" points="146.69 208.18 146.24 208.86 39.57 135.01 40.05 134.33"/><polyline class="cls-79" points="146.38 208.63 145.93 209.31 39.26 135.47 39.74 134.79"/><polyline class="cls-79" points="146.07 209.08 145.62 209.74 38.95 135.92 39.43 135.24"/><polyline class="cls-80" points="145.76 209.51 145.3 210.19 38.64 136.35 39.12 135.69"/><polyline class="cls-80" points="145.45 209.96 144.99 210.64 38.32 136.8 38.81 136.15"/><polyline class="cls-80" points="145.13 210.42 144.68 211.1 38.01 137.25 38.49 136.57"/><polyline class="cls-80" points="144.82 210.87 144.37 211.55 37.7 137.71 38.18 137.03"/><polyline class="cls-81" points="144.51 211.32 144.06 212 37.42 138.16 37.87 137.48"/><polyline class="cls-81" points="144.2 211.78 143.75 212.46 37.11 138.61 37.56 137.93"/><polyline class="cls-82" points="143.89 212.23 143.43 212.88 36.79 139.07 37.25 138.39"/><polyline class="cls-82" points="143.57 212.66 143.12 213.34 36.48 139.52 36.94 138.84"/><polyline class="cls-82" points="143.26 213.11 142.81 213.79 36.17 139.95 36.62 139.29"/><polyline class="cls-82" points="142.98 213.56 142.5 214.24 35.86 140.4 36.31 139.72"/><polyline class="cls-82" points="142.67 214.02 142.19 214.7 35.55 140.85 36 140.17"/><polyline class="cls-82" points="142.36 214.47 141.87 215.15 35.23 141.31 35.69 140.63"/><polyline class="cls-3" points="142.04 214.92 141.56 215.6 34.92 141.76 35.38 141.08"/><polyline class="cls-3" points="141.73 215.38 141.25 216.03 34.61 142.21 35.06 141.53"/><polyline class="cls-3" points="141.42 215.83 117.55 250.27 10.91 176.43 34.75 141.99"/></g><path class="cls-3" d="M192.67,55C211,60.72,220,72.54,216.88,94.79c-2.47,15.76-17.35,39.71-64.46,45.5C206,133.8,234.48,77.16,192.67,55Z"/><path class="cls-83" d="M697.27,97.2a9.06,9.06,0,1,1-9.07,9,9,9,0,0,1,9.07-9Z"/></g><g id="r"><path class="cls-3" d="M621.43,58H625q3-.11,3,2.5,0,2.83-3,2.83h-3.6Zm0,8.7H626c1.09,0,1.71.87,1.85,2.61a26.61,26.61,0,0,0,.76,5.44h4.68A12.13,12.13,0,0,1,632.2,70a2.83,2.83,0,0,0-.11-.65q-.21-4.35-3.59-4.46v-.11q4-1,4.13-4.9-.1-5.12-7-5.23h-8.59V74.8h4.35Z"/><path class="cls-3" d="M624.37,46a18.7,18.7,0,1,1-18.7,18.7A18.74,18.74,0,0,1,624.37,46Zm0,4.23A14.48,14.48,0,1,1,609.9,64.74a14.51,14.51,0,0,1,14.48-14.48Z"/></g></g></g></svg>